<svg width="32" height="32" viewBox="0 0 32 32" fill="none" xmlns="http://www.w3.org/2000/svg">
<path d="M26.6667 4H9.33334C7.86267 4 6.66667 5.196 6.66667 6.66667V9.33333H5.33334C3.86267 9.33333 2.66667 10.5293 2.66667 12V25.3333C2.66667 26.804 3.86267 28 5.33334 28H13.3333C14.804 28 16 26.804 16 25.3333H26.6667C28.1373 25.3333 29.3333 24.1373 29.3333 22.6667V6.66667C29.3333 5.196 28.1373 4 26.6667 4ZM8.00001 12H13.3333L13.3293 24H5.33334V12H8.00001ZM16 22.6667V12C16 10.5293 14.804 9.33333 13.3333 9.33333H9.33334V6.66667H24V22.6667H16Z" fill="#D90062"/>
</svg>
