<svg width="38" height="28" viewBox="0 0 38 28" fill="none" xmlns="http://www.w3.org/2000/svg">
<path d="M36.6042 9.26042C34.9271 10.5729 32.8125 12.1771 25.375 17.5729C23.9167 18.6667 21.2188 21.0729 18.6667 21.0729C16.0417 21.0729 13.4167 18.6667 11.8854 17.5729C4.44792 12.1771 2.33333 10.5729 0.65625 9.26042C0.364583 9.04167 0 9.26042 0 9.625V24.5C0 26.4687 1.53125 28 3.5 28H33.8333C35.7292 28 37.3333 26.4687 37.3333 24.5V9.625C37.3333 9.26042 36.8958 9.04167 36.6042 9.26042ZM18.6667 18.6667C20.3438 18.7396 22.75 16.5521 23.9896 15.6771C33.6875 8.67708 34.4167 8.02083 36.6042 6.27083C37.0417 5.97917 37.3333 5.46875 37.3333 4.88542V3.5C37.3333 1.60416 35.7292 -1.90735e-06 33.8333 -1.90735e-06H3.5C1.53125 -1.90735e-06 0 1.60416 0 3.5V4.88542C0 5.46875 0.21875 5.97917 0.65625 6.27083C2.84375 8.02083 3.57292 8.67708 13.2708 15.6771C14.5104 16.5521 16.9167 18.7396 18.6667 18.6667Z" fill="#14192D"/>
</svg>
