<svg width="28" height="28" viewBox="0 0 28 28" fill="none" xmlns="http://www.w3.org/2000/svg">
<path d="M14 21.9998C19.3334 21.9998 20.6667 16.6665 20.6667 16.6665H7.33337C7.33337 16.6665 8.66671 21.9998 14 21.9998Z" fill="#14192D"/>
<path d="M14 0.666504C6.64796 0.666504 0.666626 6.64784 0.666626 13.9998C0.666626 21.3518 6.64796 27.3332 14 27.3332C21.352 27.3332 27.3333 21.3518 27.3333 13.9998C27.3333 6.64784 21.352 0.666504 14 0.666504ZM14 24.6665C8.11863 24.6665 3.33329 19.8812 3.33329 13.9998C3.33329 8.1185 8.11863 3.33317 14 3.33317C19.8813 3.33317 24.6666 8.1185 24.6666 13.9998C24.6666 19.8812 19.8813 24.6665 14 24.6665Z" fill="#14192D"/>
<path d="M15.3333 14L18 14.016C18.016 13.4 18.2586 12.6667 19.3333 12.6667C20.408 12.6667 20.6506 13.4 20.6666 14H23.3333C23.3333 12.392 22.268 10 19.3333 10C16.3986 10 15.3333 12.392 15.3333 14ZM8.66663 12.6667C9.74129 12.6667 9.98396 13.4 9.99996 14H12.6666C12.6666 12.392 11.6013 10 8.66663 10C5.73196 10 4.66663 12.392 4.66663 14L7.33329 14.016C7.34929 13.4 7.59196 12.6667 8.66663 12.6667Z" fill="#14192D"/>
</svg>
