<svg width="34" height="34" viewBox="0 0 34 34" fill="none" xmlns="http://www.w3.org/2000/svg">
<path d="M32.4167 11.6771L32.9271 8.76042C33.0729 8.17708 32.6354 7.66667 32.0521 7.66667H26.6563L27.6771 1.76041C27.8229 1.17708 27.3854 0.666665 26.8021 0.666665H23.8854C23.4479 0.666665 23.0833 1.03125 23.0104 1.39583L21.9167 7.66667H14.6979L15.7917 1.76041C15.8646 1.17708 15.4271 0.666665 14.9167 0.666665H11.9271C11.4896 0.666665 11.125 1.03125 11.0521 1.39583L9.95833 7.66667H4.19792C3.76042 7.66667 3.39583 8.03125 3.32292 8.39583L2.8125 11.3125C2.73958 11.8958 3.10417 12.3333 3.6875 12.3333H9.15625L7.47917 21.6667H1.71875C1.28125 21.6667 0.916667 22.0312 0.843751 22.3958L0.333334 25.3125C0.187501 25.8958 0.625001 26.3333 1.20833 26.3333H6.60417L5.58333 32.3125C5.4375 32.8958 5.875 33.3333 6.45833 33.3333H9.375C9.8125 33.3333 10.1771 33.0417 10.25 32.6771L11.3438 26.3333H18.5625L17.4688 32.3125C17.3958 32.8958 17.8333 33.3333 18.3438 33.3333H21.3333C21.7708 33.3333 22.1354 33.0417 22.2083 32.6771L23.3021 26.3333H29.0625C29.5 26.3333 29.8646 26.0417 29.9375 25.6771L30.4479 22.7604C30.5208 22.1771 30.1563 21.6667 29.5729 21.6667H24.1042L25.7813 12.3333H31.5417C31.9792 12.3333 32.3438 12.0417 32.4167 11.6771ZM19.3646 21.6667H12.2188L13.8958 12.3333H21.0417L19.3646 21.6667Z" fill="#14192D"/>
</svg>
