<svg width="43" height="34" viewBox="0 0 43 34" fill="none" xmlns="http://www.w3.org/2000/svg">
<path d="M21.0833 9.19792L7.66667 20.2812V32.1667C7.66667 32.8229 8.17708 33.3333 8.83333 33.3333H17C17.5833 33.3333 18.0938 32.8229 18.0938 32.1667V25.1667C18.0938 24.5833 18.6771 24 19.2604 24H23.9271C24.5833 24 25.0938 24.5833 25.0938 25.1667V32.1667C25.0938 32.8229 25.6771 33.3333 26.2604 33.3333H34.5C35.0833 33.3333 35.6667 32.8229 35.6667 32.1667V20.2083L22.1771 9.19792C22.0313 9.05208 21.8125 8.97917 21.6667 8.97917C21.4479 8.97917 21.2292 9.05208 21.0833 9.19792ZM42.3021 16.7083L36.25 11.6771V1.61458C36.25 1.10416 35.8125 0.739581 35.375 0.739581H31.2917C30.7813 0.739581 30.4167 1.10416 30.4167 1.61458V6.86458L23.8542 1.46875C23.2708 1.03125 22.4688 0.739581 21.6667 0.739581C20.7917 0.739581 19.9896 1.03125 19.4063 1.46875L0.958333 16.7083C0.739583 16.8542 0.593749 17.1458 0.593749 17.3646C0.593749 17.5833 0.739583 17.8021 0.812499 17.9479L2.70833 20.2083C2.85417 20.4271 3.07292 20.5 3.36458 20.5C3.58333 20.5 3.80208 20.4271 3.94792 20.2812L21.0833 6.20833C21.2292 6.0625 21.4479 5.98958 21.6667 5.98958C21.8125 5.98958 22.0313 6.0625 22.1771 6.20833L39.3125 20.2812C39.4583 20.4271 39.6771 20.5 39.8958 20.5C40.1875 20.5 40.4063 20.4271 40.5521 20.2083L42.4479 17.9479C42.5938 17.8021 42.6667 17.5833 42.6667 17.3646C42.6667 17.1458 42.5208 16.8542 42.3021 16.7083Z" fill="#14192D"/>
</svg>
