<svg width="39" height="38" viewBox="0 0 39 38" fill="none" xmlns="http://www.w3.org/2000/svg">
<path d="M36.9479 2.15625L29.3646 0.406248C28.5625 0.187498 27.6875 0.624998 27.3229 1.42708L23.8229 9.59375C23.5313 10.3229 23.75 11.125 24.3333 11.6354L28.7813 15.2812C26.1563 20.8229 21.5625 25.4896 15.875 28.1875L12.2292 23.7396C11.7188 23.1562 10.9167 22.9375 10.1875 23.2292L2.02083 26.7292C1.21875 27.0937 0.854167 27.9687 1 28.7708L2.75 36.3542C2.96875 37.1563 3.625 37.6667 4.5 37.6667C23.1667 37.6667 38.3333 22.5729 38.3333 3.83333C38.3333 3.03125 37.75 2.375 36.9479 2.15625Z" fill="#14192D"/>
</svg>
