<svg width="32" height="32" viewBox="0 0 32 32" fill="none" xmlns="http://www.w3.org/2000/svg">
<path d="M13.3333 24.0001C15.7947 24.0001 18.0573 23.1534 19.8627 21.7494L25.724 27.6107L27.6093 25.7254L21.748 19.8641C23.1533 18.0574 24 15.7947 24 13.3334C24 7.45208 19.2147 2.66675 13.3333 2.66675C7.45201 2.66675 2.66667 7.45208 2.66667 13.3334C2.66667 19.2147 7.45201 24.0001 13.3333 24.0001ZM13.3333 5.33341C17.7453 5.33341 21.3333 8.92141 21.3333 13.3334C21.3333 17.7454 17.7453 21.3334 13.3333 21.3334C8.92134 21.3334 5.33334 17.7454 5.33334 13.3334C5.33334 8.92141 8.92134 5.33341 13.3333 5.33341Z" fill="#D90062"/>
<path d="M15.216 11.4481C15.7213 11.9548 16 12.6241 16 13.3334H18.6667C18.6667 11.9134 18.112 10.5748 17.1013 9.56278C15.0827 7.54678 11.5827 7.54678 9.56534 9.56278L11.448 11.4508C12.4613 10.4401 14.208 10.4428 15.216 11.4481Z" fill="#D90062"/>
</svg>
