<svg width="32" height="32" viewBox="0 0 32 32" fill="none" xmlns="http://www.w3.org/2000/svg">
<path d="M16 29.3333C17.4728 29.3333 18.6667 28.1394 18.6667 26.6667C18.6667 25.1939 17.4728 24 16 24C14.5272 24 13.3333 25.1939 13.3333 26.6667C13.3333 28.1394 14.5272 29.3333 16 29.3333Z" fill="#D90062"/>
<path d="M16 8.00008C17.4728 8.00008 18.6667 6.80617 18.6667 5.33341C18.6667 3.86066 17.4728 2.66675 16 2.66675C14.5272 2.66675 13.3333 3.86066 13.3333 5.33341C13.3333 6.80617 14.5272 8.00008 16 8.00008Z" fill="#D90062"/>
<path d="M8.45735 26.2093C9.93011 26.2093 11.124 25.0154 11.124 23.5426C11.124 22.0699 9.93011 20.876 8.45735 20.876C6.98459 20.876 5.79068 22.0699 5.79068 23.5426C5.79068 25.0154 6.98459 26.2093 8.45735 26.2093Z" fill="#D90062"/>
<path d="M23.5427 11.1241C25.0154 11.1241 26.2093 9.9302 26.2093 8.45744C26.2093 6.98468 25.0154 5.79077 23.5427 5.79077C22.0699 5.79077 20.876 6.98468 20.876 8.45744C20.876 9.9302 22.0699 11.1241 23.5427 11.1241Z" fill="#D90062"/>
<path d="M5.33334 18.668C6.80684 18.668 8.00134 17.4735 8.00134 16C8.00134 14.5265 6.80684 13.332 5.33334 13.332C3.85985 13.332 2.66534 14.5265 2.66534 16C2.66534 17.4735 3.85985 18.668 5.33334 18.668Z" fill="#D90062"/>
<path d="M26.6667 18.6666C28.1394 18.6666 29.3333 17.4727 29.3333 15.9999C29.3333 14.5272 28.1394 13.3333 26.6667 13.3333C25.1939 13.3333 24 14.5272 24 15.9999C24 17.4727 25.1939 18.6666 26.6667 18.6666Z" fill="#D90062"/>
<path d="M8.45735 11.1253C9.93011 11.1253 11.124 9.93142 11.124 8.45866C11.124 6.9859 9.93011 5.79199 8.45735 5.79199C6.98459 5.79199 5.79068 6.9859 5.79068 8.45866C5.79068 9.93142 6.98459 11.1253 8.45735 11.1253Z" fill="#D90062"/>
<path d="M23.5427 26.2108C25.0154 26.2108 26.2093 25.0169 26.2093 23.5441C26.2093 22.0713 25.0154 20.8774 23.5427 20.8774C22.0699 20.8774 20.876 22.0713 20.876 23.5441C20.876 25.0169 22.0699 26.2108 23.5427 26.2108Z" fill="#D90062"/>
</svg>
