<svg width="14" height="14" viewBox="0 0 14 14" fill="none" xmlns="http://www.w3.org/2000/svg">
<path d="M11.9259 11.9307H9.85526V8.68148C9.85526 7.90669 9.83907 6.91097 8.77248 6.91097C7.69276 6.91097 7.52827 7.75138 7.52827 8.62417V11.9303H5.45502V5.2494H7.44646V6.16068H7.47314C7.75138 5.63439 8.42817 5.08097 9.43789 5.08097C11.5383 5.08097 11.9281 6.46386 11.9281 8.26193V11.9303L11.9259 11.9307ZM3.11272 4.33636C2.44467 4.33636 1.90919 3.79607 1.90919 3.13065C1.90919 2.46742 2.44686 1.928 3.11272 1.928C3.77857 1.928 4.31799 2.46742 4.31799 3.13065C4.31799 3.79607 3.77857 4.33636 3.11272 4.33636V4.33636ZM4.15131 11.9307H2.07369V5.24984H4.15131V11.9307ZM12.9653 0H1.03247C0.462423 0 0 0.451048 0 1.00928V12.9907C0 13.549 0.462423 14 1.03247 14H12.9632C13.5323 14 13.9996 13.549 13.9996 12.9907V1.00928C13.9996 0.451048 13.5323 0 12.9632 0L12.9653 0Z" fill="black"/>
</svg>
