<svg width="15" height="14" viewBox="0 0 15 14" fill="none" xmlns="http://www.w3.org/2000/svg">
<path d="M7.17679 0.000448543C3.21206 0.000448543 0 3.2152 0 7.17724C0 10.3498 2.05615 13.0389 4.90578 13.9876C5.26597 14.0553 5.39605 13.8333 5.39605 13.6413C5.39605 13.4708 5.39201 13.02 5.38932 12.4217C3.39193 12.8541 2.97119 11.4568 2.97119 11.4568C2.6442 10.6297 2.17232 10.4077 2.17232 10.4077C1.52282 9.96407 2.22391 9.97349 2.22391 9.97349C2.94338 10.0224 3.32196 10.7114 3.32196 10.7114C3.96204 11.8094 5.00132 11.4918 5.41264 11.307C5.47544 10.8446 5.66249 10.5266 5.86613 10.3494C4.27288 10.1695 2.59755 9.55275 2.59755 6.8027C2.59755 6.01729 2.87565 5.37766 3.33541 4.87528C3.25602 4.69541 3.01291 3.96428 3.39866 2.97568C3.39866 2.97568 3.99926 2.78414 5.37227 3.71174C5.94687 3.55251 6.55689 3.47312 7.16647 3.46908C7.7765 3.47312 8.38608 3.55296 8.96067 3.71174C10.3256 2.78414 10.9258 2.97568 10.9258 2.97568C11.3111 3.96428 11.068 4.69496 10.998 4.87528C11.4533 5.37766 11.7314 6.01774 11.7314 6.8027C11.7314 9.55903 10.0538 10.1668 8.45874 10.3422C8.70813 10.5571 8.94183 10.9989 8.94183 11.6695C8.94183 12.6294 8.93286 13.4026 8.93286 13.6363C8.93286 13.8229 9.05845 14.0472 9.42806 13.975C12.2988 13.0362 14.3527 10.3449 14.3527 7.17679C14.3527 3.21475 11.1406 0 7.17589 0L7.17679 0.000448543Z" fill="black"/>
</svg>
