<svg width="15" height="14" viewBox="0 0 15 14" fill="none" xmlns="http://www.w3.org/2000/svg">
<path d="M14.0867 7.04336C14.0867 3.15234 10.9317 0 7.04336 0C3.15234 0 0 3.15234 0 7.04336C0 10.558 2.57479 13.4722 5.94284 14V9.07977H4.15426V7.0438H5.94284V5.49118C5.94284 3.72638 6.99274 2.75175 8.60214 2.75175C9.37295 2.75175 10.1799 2.8891 10.1799 2.8891V4.62221H9.29019C8.41682 4.62221 8.14389 5.16586 8.14389 5.72273V7.04336H10.0971L9.78323 9.07933H8.14389V13.9996C11.5093 13.4717 14.0867 10.5576 14.0867 7.04292V7.04336Z" fill="black"/>
</svg>
